<mxfile host="app.diagrams.net" modified="2024-04-25T20:39:39.401Z" agent="Mozilla/5.0 (Windows NT 10.0; Win64; x64) AppleWebKit/537.36 (KHTML, like Gecko) Chrome/124.0.0.0 Safari/537.36" version="24.3.0" etag="KOa1eh8tDCr4YxEqQlq1" type="github">
  <diagram name="PÃ¡gina-1" id="RirHBBmGv_DkglO3dAsg">
    <mxGraphModel>
      <root>
        <mxCell id="0" />
        <mxCell id="1" parent="0" />
      </root>
    </mxGraphModel>
  </diagram>
</mxfile>
